<svg xmlns="http://www.w3.org/2000/svg" xmlns:xlink="http://www.w3.org/1999/xlink" width="500" height="500" version="1.2" viewBox="0 0 375 375"><defs><clipPath id="clip1"><path d="M 94.453125 112.5 L 224.203125 112.5 L 224.203125 262.5 L 94.453125 262.5 Z M 94.453125 112.5"/></clipPath><clipPath id="clip2"><path d="M 150.984375 112.5 L 280.546875 112.5 L 280.546875 262.5 L 150.984375 262.5 Z M 150.984375 112.5"/></clipPath></defs><g id="surface1"><g clip-path="url(#clip1)" clip-rule="nonzero"><path style="stroke:none;fill-rule:nonzero;fill:#000;fill-opacity:1" d="M 152.460938 112.5 L 97.878906 112.5 C 95.988281 112.5 94.460938 114.027344 94.460938 115.910156 L 94.460938 259.089844 C 94.460938 260.972656 95.988281 262.5 97.878906 262.5 L 152.460938 262.5 C 198.167969 262.5 224.382812 234.925781 224.382812 186.855469 C 224.382812 140.292969 197.496094 112.5 152.460938 112.5 Z M 149.589844 238.636719 L 125.230469 238.636719 L 125.230469 136.363281 L 149.589844 136.363281 C 177.277344 136.363281 193.613281 154.929688 193.613281 187.246094 C 193.613281 220.273438 177.664062 238.636719 149.589844 238.636719 Z M 149.589844 238.636719"/></g><g clip-path="url(#clip2)" clip-rule="nonzero"><path style="stroke:none;fill-rule:nonzero;fill:#000;fill-opacity:1" d="M 222.539062 112.5 L 277.121094 112.5 C 279.011719 112.5 280.539062 114.027344 280.539062 115.910156 L 280.539062 259.089844 C 280.539062 260.972656 279.011719 262.5 277.121094 262.5 L 222.539062 262.5 C 176.832031 262.5 150.617188 234.925781 150.617188 186.855469 C 150.617188 140.292969 177.503906 112.5 222.539062 112.5 Z M 225.410156 238.636719 L 249.769531 238.636719 L 249.769531 136.363281 L 225.410156 136.363281 C 197.722656 136.363281 181.386719 154.929688 181.386719 187.246094 C 181.386719 220.273438 197.335938 238.636719 225.410156 238.636719 Z M 225.410156 238.636719"/></g></g></svg>